<svg width="81" height="80" viewBox="0 0 81 80" fill="none" xmlns="http://www.w3.org/2000/svg">
<path fill-rule="evenodd" clip-rule="evenodd" d="M17 23.4606C17 21.4542 18.6265 19.8277 20.6329 19.8277H41.825C42.4938 19.8277 43.036 20.3699 43.036 21.0387C43.036 21.7075 42.4938 22.2497 41.825 22.2497H20.6329C19.9641 22.2497 19.422 22.7918 19.422 23.4606V64.6339C19.422 65.3027 19.9641 65.8448 20.6329 65.8448H52.1183C52.7871 65.8448 53.3293 65.3027 53.3293 64.6339V36.7814C53.3293 36.1126 53.8715 35.5704 54.5403 35.5704C55.2091 35.5704 55.7513 36.1126 55.7513 36.7814V64.6339C55.7513 66.6403 54.1248 68.2668 52.1183 68.2668H20.6329C18.6265 68.2668 17 66.6403 17 64.6339V23.4606Z" fill="black"/>
<path d="M31.7428 37.4737C32.6666 37.4737 33.5697 37.1998 34.3378 36.6865C35.106 36.1733 35.7047 35.4438 36.0582 34.5903C36.4117 33.7368 36.5042 32.7976 36.324 31.8916C36.1438 30.9855 35.6989 30.1532 35.0457 29.5C34.3924 28.8467 33.5601 28.4019 32.6541 28.2216C31.748 28.0414 30.8088 28.1339 29.9553 28.4875C29.1018 28.841 28.3724 29.4397 27.8591 30.2078C27.3459 30.9759 27.0719 31.879 27.0719 32.8028C27.0734 34.0411 27.566 35.2283 28.4417 36.104C29.3173 36.9796 30.5045 37.4722 31.7428 37.4737ZM31.7428 30.4385C32.2104 30.4385 32.6676 30.5772 33.0564 30.837C33.4452 31.0968 33.7482 31.466 33.9271 31.898C34.1061 32.3301 34.1529 32.8054 34.0617 33.2641C33.9705 33.7227 33.7453 34.144 33.4146 34.4746C33.084 34.8053 32.6627 35.0304 32.2041 35.1217C31.7454 35.2129 31.2701 35.1661 30.8381 34.9871C30.406 34.8082 30.0368 34.5051 29.777 34.1163C29.5172 33.7275 29.3785 33.2704 29.3785 32.8028C29.3795 32.176 29.6288 31.5752 30.072 31.132C30.5152 30.6888 31.1161 30.4394 31.7428 30.4385ZM24.9833 46.4119C25.2891 46.4119 25.5825 46.2904 25.7988 46.0741C26.0151 45.8578 26.1366 45.5645 26.1366 45.2586V44.5551C26.1381 43.4219 26.5889 42.3357 27.3901 41.5344C28.1914 40.7332 29.2776 40.2824 30.4108 40.2809H33.0749C34.208 40.2824 35.2943 40.7332 36.0955 41.5344C36.8967 42.3357 37.3476 43.4219 37.3491 44.5551V45.2586C37.3491 45.5645 37.4706 45.8578 37.6869 46.0741C37.9032 46.2904 38.1965 46.4119 38.5024 46.4119C38.8083 46.4119 39.1016 46.2904 39.3179 46.0741C39.5342 45.8578 39.6557 45.5645 39.6557 45.2586V44.5551C39.6536 42.8104 38.9595 41.1378 37.7259 39.9041C36.4922 38.6704 34.8196 37.9764 33.0749 37.9743H30.4108C28.6661 37.9764 26.9935 38.6704 25.7598 39.9041C24.5261 41.1378 23.8321 42.8104 23.83 44.5551V45.2586C23.83 45.5645 23.9515 45.8578 24.1678 46.0741C24.384 46.2904 24.6774 46.4119 24.9833 46.4119ZM24.3409 54.8507H38.3363C38.6422 54.8507 38.9355 54.7292 39.1518 54.5129C39.3681 54.2966 39.4896 54.0032 39.4896 53.6974C39.4896 53.3915 39.3681 53.0981 39.1518 52.8818C38.9355 52.6656 38.6422 52.544 38.3363 52.544H24.3409C24.035 52.544 23.7416 52.6656 23.5254 52.8818C23.3091 53.0981 23.1876 53.3915 23.1876 53.6974C23.1876 54.0032 23.3091 54.2966 23.5254 54.5129C23.7416 54.7292 24.035 54.8507 24.3409 54.8507ZM46.2538 58.6174H24.3409C24.035 58.6174 23.7416 58.7389 23.5254 58.9552C23.3091 59.1715 23.1876 59.4648 23.1876 59.7707C23.1876 60.0766 23.3091 60.3699 23.5254 60.5862C23.7416 60.8025 24.035 60.924 24.3409 60.924H46.2538C46.5597 60.924 46.853 60.8025 47.0693 60.5862C47.2856 60.3699 47.4071 60.0766 47.4071 59.7707C47.4071 59.4648 47.2856 59.1715 47.0693 58.9552C46.853 58.7389 46.5597 58.6174 46.2538 58.6174Z" fill="black"/>
<path fill-rule="evenodd" clip-rule="evenodd" d="M50.2183 19.2781L49.8268 21.9127C49.6498 23.1037 48.8543 24.1116 47.737 24.5605L45.2656 25.5535L47.6502 26.74C48.7283 27.2764 49.441 28.3443 49.5227 29.5457L49.7034 32.203L51.5686 30.3018C52.4119 29.4422 53.6478 29.0944 54.8156 29.3879L57.3987 30.0372L56.1669 27.6757C55.6101 26.6081 55.6612 25.3252 56.3012 24.3053L57.717 22.0492L55.0904 22.491C53.9029 22.6907 52.6986 22.2457 51.9264 21.3218L50.2183 19.2781ZM50.0002 15.2406C49.4639 14.5991 48.4215 14.8925 48.2986 15.7195L47.4311 21.5567C47.3805 21.897 47.1533 22.1849 46.834 22.3132L41.3583 24.5133C40.5825 24.825 40.5394 25.9071 41.2879 26.2796L46.5713 28.9084C46.8793 29.0616 47.0829 29.3667 47.1063 29.71L47.5066 35.5976C47.5634 36.4318 48.5792 36.8072 49.1647 36.2104L53.2975 31.9979C53.5384 31.7523 53.8915 31.6529 54.2252 31.7368L59.9484 33.1754C60.7593 33.3793 61.4302 32.5291 61.0435 31.7878L58.3143 26.5556C58.1552 26.2506 58.1698 25.8841 58.3527 25.5926L61.4895 20.5941C61.9339 19.8859 61.3327 18.9851 60.5082 19.1238L54.6887 20.1026C54.3494 20.1596 54.0053 20.0325 53.7847 19.7685L50.0002 15.2406Z" fill="#F7B348"/>
</svg>
