<svg width="7" height="7" viewBox="0 0 7 7" fill="none" xmlns="http://www.w3.org/2000/svg">
<g clip-path="url(#clip0_5911_32523)">
<path d="M5.5265 3.43793H5.78133C5.84892 3.43793 5.91374 3.46478 5.96153 3.51257C6.00932 3.56036 6.03617 3.62518 6.03617 3.69276V6.24107C6.03617 6.30865 6.00932 6.37347 5.96153 6.42126C5.91374 6.46905 5.84892 6.4959 5.78133 6.4959H1.70405C1.63646 6.4959 1.57165 6.46905 1.52386 6.42126C1.47607 6.37347 1.44922 6.30865 1.44922 6.24107V3.69276C1.44922 3.62518 1.47607 3.56036 1.52386 3.51257C1.57165 3.46478 1.63646 3.43793 1.70405 3.43793H1.95888V3.1831C1.95888 2.94885 2.00502 2.71689 2.09466 2.50047C2.18431 2.28405 2.3157 2.0874 2.48135 1.92176C2.64699 1.75612 2.84363 1.62472 3.06006 1.53508C3.27648 1.44543 3.50844 1.39929 3.74269 1.39929C3.97695 1.39929 4.20891 1.44543 4.42533 1.53508C4.64175 1.62472 4.8384 1.75612 5.00404 1.92176C5.16968 2.0874 5.30107 2.28405 5.39072 2.50047C5.48036 2.71689 5.5265 2.94885 5.5265 3.1831V3.43793ZM5.01684 3.43793V3.1831C5.01684 2.84518 4.8826 2.52109 4.64365 2.28214C4.4047 2.04319 4.08062 1.90895 3.74269 1.90895C3.40477 1.90895 3.08068 2.04319 2.84173 2.28214C2.60278 2.52109 2.46854 2.84518 2.46854 3.1831V3.43793H5.01684ZM3.48786 4.45726V5.47658H3.99752V4.45726H3.48786Z" fill="#4B4B4B"/>
</g>
<defs>
<clipPath id="clip0_5911_32523">
<rect width="6.11593" height="6.11593" fill="white" transform="translate(0.6875 0.888611)"/>
</clipPath>
</defs>
</svg>
