<svg width="37" height="42" viewBox="0 0 37 42" fill="none" xmlns="http://www.w3.org/2000/svg">
<path fill-rule="evenodd" clip-rule="evenodd" d="M12.3797 39.011C8.84672 38.0082 5.14783 37.5024 1.55966 37.039C0.786824 36.9418 0.0692983 37.484 0.0140958 38.2478C-0.0963094 39.0121 0.45604 39.7111 1.17367 39.8083C4.65144 40.2544 8.23928 40.7318 11.6066 41.6971C12.3243 41.9065 13.0974 41.4755 13.3182 40.734C13.539 39.9931 13.0973 39.2209 12.3797 39.011Z" fill="black"/>
<path fill-rule="evenodd" clip-rule="evenodd" d="M23.0863 24.7942C17.4005 18.9256 10.997 13.8125 5.4215 7.78642C4.92468 7.22362 4.04144 7.19347 3.48941 7.71886C2.93739 8.24481 2.8824 9.1292 3.43443 9.69199C9.00989 15.7353 15.4134 20.8653 21.0993 26.7512C21.6513 27.3006 22.5343 27.3084 23.0863 26.7679C23.5832 26.228 23.6384 25.3436 23.0863 24.7942Z" fill="black"/>
<path fill-rule="evenodd" clip-rule="evenodd" d="M33.7457 2.22162C33.9113 5.58053 34.0766 8.93943 34.2422 12.2989C34.2422 13.0683 34.9049 13.6623 35.6778 13.6249C36.4506 13.587 37.0023 12.932 37.0023 12.1621C36.8367 8.79762 36.6714 5.43368 36.5058 2.06975C36.4506 1.30038 35.7881 0.710223 35.0152 0.752098C34.2976 0.793972 33.6905 1.4528 33.7457 2.22162Z" fill="black"/>
</svg>
