<svg width="19" height="19" viewBox="0 0 19 19" fill="none" xmlns="http://www.w3.org/2000/svg">
<path d="M5.8999 1.58679H15.4108H3.18251C2.70204 1.58679 2.24125 1.77766 1.90151 2.1174C1.56177 2.45714 1.37091 2.91792 1.37091 3.39839V16.9853M17.6753 16.9853V3.39839C17.6753 2.91792 17.4844 2.45714 17.1447 2.1174C16.8049 1.77766 16.3441 1.58679 15.8637 1.58679H13.1463M13.1463 17.8911H15.8637C16.3441 17.8911 16.8049 17.7003 17.1447 17.3605C17.4844 17.0208 17.6753 16.56 17.6753 16.0795V13.3622M1.37091 13.3622V16.0795C1.37091 16.56 1.56177 17.0208 1.90151 17.3605C2.24125 17.7003 2.70204 17.8911 3.18251 17.8911H16.7695" stroke="white" stroke-width="2.17391" stroke-linecap="round" stroke-linejoin="round"/>
</svg>
